<svg width="32" height="32" viewBox="0 0 32 32" fill="none" xmlns="http://www.w3.org/2000/svg">
<path d="M25.2901 19.8229C24.635 19.1407 23.8448 18.776 23.0073 18.776C22.1766 18.776 21.3797 19.134 20.6975 19.8161L18.5633 21.9436C18.3877 21.849 18.2121 21.7612 18.0433 21.6734C17.8001 21.5518 17.5705 21.437 17.3747 21.3155C15.3755 20.0457 13.5587 18.3911 11.8163 16.2501C10.972 15.183 10.4047 14.2847 9.99273 13.373C10.5465 12.8664 11.0598 12.3396 11.5596 11.8331C11.7487 11.644 11.9378 11.4481 12.1269 11.259C13.5452 9.84072 13.5452 8.00368 12.1269 6.58538L10.2831 4.74159C10.0738 4.53222 9.85765 4.3161 9.65504 4.09997C9.24981 3.68124 8.82432 3.24899 8.38532 2.84376C7.7302 2.1954 6.94676 1.85095 6.12279 1.85095C5.29882 1.85095 4.50187 2.1954 3.82649 2.84376C3.81974 2.85052 3.81974 2.85052 3.81298 2.85727L1.51669 5.17383C0.652196 6.03832 0.159167 7.09192 0.0511064 8.31436C-0.110985 10.2865 0.469843 12.1235 0.915595 13.3257C2.00971 16.2771 3.64414 19.0124 6.08227 21.9436C9.04044 25.4758 12.5997 28.2651 16.6655 30.2305C18.2189 30.9667 20.2923 31.8379 22.6089 31.9865C22.7507 31.9932 22.8993 32 23.0344 32C24.5945 32 25.9047 31.4394 26.9313 30.325C26.9381 30.3115 26.9516 30.3048 26.9583 30.2913C27.3095 29.8658 27.7147 29.4808 28.1402 29.0688C28.4307 28.7919 28.7278 28.5015 29.0182 28.1976C29.6869 27.502 30.0381 26.6915 30.0381 25.8608C30.0381 25.0233 29.6801 24.2196 28.998 23.5442L25.2901 19.8229ZM27.708 26.9346C27.7012 26.9346 27.7012 26.9414 27.708 26.9346C27.4446 27.2183 27.1744 27.4749 26.884 27.7586C26.445 28.1773 25.9993 28.6163 25.5805 29.1094C24.8984 29.8388 24.0947 30.1832 23.0411 30.1832C22.9398 30.1832 22.8317 30.1832 22.7304 30.1765C20.7245 30.0481 18.8605 29.2647 17.4625 28.5961C13.6398 26.7455 10.2831 24.1183 7.49381 20.7887C5.19076 18.0128 3.65089 15.4464 2.63107 12.6908C2.00296 11.0091 1.77333 9.69889 1.87464 8.46294C1.94218 7.67274 2.2461 7.01762 2.80666 6.45706L5.10972 4.154C5.44065 3.84333 5.79185 3.67448 6.1363 3.67448C6.56179 3.67448 6.90623 3.93113 7.12235 4.14725C7.12911 4.154 7.13586 4.16076 7.14262 4.16751C7.5546 4.55248 7.94632 4.95095 8.3583 5.37645C8.56767 5.59257 8.78379 5.80869 8.99992 6.03157L10.8437 7.87536C11.5596 8.59126 11.5596 9.25314 10.8437 9.96904C10.6478 10.1649 10.4587 10.3608 10.2629 10.5499C9.69556 11.1307 9.15525 11.671 8.56767 12.1978C8.55416 12.2113 8.54066 12.2181 8.5339 12.2316C7.95307 12.8124 8.06114 13.3797 8.1827 13.7647C8.18946 13.7849 8.19621 13.8052 8.20297 13.8255C8.68249 14.9871 9.35787 16.0812 10.3844 17.3847L10.3912 17.3915C12.2553 19.6878 14.2206 21.4775 16.3886 22.8486C16.6655 23.0242 16.9492 23.166 17.2193 23.3011C17.4625 23.4226 17.6921 23.5375 17.8879 23.659C17.915 23.6725 17.942 23.6928 17.969 23.7063C18.1986 23.8211 18.4147 23.8752 18.6376 23.8752C19.1982 23.8752 19.5494 23.524 19.6642 23.4091L21.974 21.0993C22.2036 20.8697 22.5683 20.5928 22.9938 20.5928C23.4126 20.5928 23.757 20.8562 23.9664 21.0858C23.9731 21.0926 23.9731 21.0926 23.9799 21.0993L27.7012 24.8207C28.3969 25.5096 28.3969 26.2187 27.708 26.9346Z" fill="#41A7C0"/>
<path d="M17.2936 7.61195C19.0631 7.90911 20.6705 8.74659 21.9537 10.0298C23.237 11.313 24.0677 12.9204 24.3716 14.6899C24.4459 15.1357 24.8309 15.4464 25.2699 15.4464C25.3239 15.4464 25.3712 15.4396 25.4252 15.4329C25.925 15.3518 26.2559 14.8791 26.1749 14.3793C25.8102 12.2383 24.7971 10.2865 23.2505 8.73983C21.7038 7.19321 19.752 6.18014 17.611 5.81543C17.1112 5.73438 16.6452 6.06532 16.5574 6.55835C16.4696 7.05138 16.7938 7.5309 17.2936 7.61195Z" fill="#41A7C0"/>
<path d="M31.9629 14.1159C31.3618 10.5904 29.7004 7.38232 27.1474 4.82937C24.5945 2.27643 21.3864 0.61499 17.8609 0.0139004C17.3679 -0.0738993 16.9019 0.263792 16.8141 0.75682C16.733 1.2566 17.064 1.72262 17.5638 1.81042C20.711 2.34397 23.5814 3.83656 25.8642 6.1126C28.147 8.39539 29.6328 11.2658 30.1664 14.413C30.2407 14.8588 30.6256 15.1695 31.0646 15.1695C31.1187 15.1695 31.1659 15.1627 31.22 15.156C31.713 15.0817 32.0507 14.6089 31.9629 14.1159Z" fill="#41A7C0"/>
</svg>
