<svg width="204" height="96" viewBox="0 0 204 96" fill="none" xmlns="http://www.w3.org/2000/svg">
<path d="M23.872 19.648C24.0427 19.3493 24.2987 19.2 24.64 19.2H29.504C29.9307 19.2 30.144 19.4133 30.144 19.84V63.36C30.144 63.7867 29.9307 64 29.504 64H24.64C24.2133 64 24 63.7867 24 63.36V31.616C24 31.488 23.9573 31.424 23.872 31.424C23.8293 31.424 23.7653 31.4667 23.68 31.552L17.536 43.008C17.408 43.3067 17.216 43.456 16.96 43.456C16.704 43.456 16.512 43.3067 16.384 43.008L10.304 31.616C10.2187 31.5307 10.1333 31.488 10.048 31.488C10.0053 31.488 9.984 31.552 9.984 31.68V63.36C9.984 63.7867 9.77067 64 9.344 64H4.48C4.05333 64 3.84 63.7867 3.84 63.36V19.84C3.84 19.4133 4.05333 19.2 4.48 19.2H9.344C9.64267 19.2 9.89867 19.3493 10.112 19.648L16.832 31.68C16.8747 31.7227 16.9387 31.744 17.024 31.744C17.1093 31.744 17.1733 31.7227 17.216 31.68L23.872 19.648ZM55.4415 64C55.0575 64 54.8228 63.808 54.7375 63.424L53.3295 56.064C53.3295 55.9787 53.2868 55.9147 53.2015 55.872C53.1588 55.8293 53.0948 55.808 53.0095 55.808H42.5775C42.4922 55.808 42.4068 55.8293 42.3215 55.872C42.2788 55.9147 42.2575 55.9787 42.2575 56.064L40.9135 63.424C40.8708 63.808 40.6362 64 40.2095 64H35.3455C35.1322 64 34.9615 63.936 34.8335 63.808C34.7482 63.68 34.7268 63.5093 34.7695 63.296L44.3055 19.776C44.3908 19.392 44.6255 19.2 45.0095 19.2H50.7055C51.1322 19.2 51.3668 19.392 51.4095 19.776L61.0095 63.296V63.424C61.0095 63.808 60.8175 64 60.4335 64H55.4415ZM43.3455 50.688C43.3455 50.8587 43.4095 50.944 43.5375 50.944H52.0495C52.1775 50.944 52.2415 50.8587 52.2415 50.688L47.8895 27.968C47.8468 27.8827 47.8042 27.84 47.7615 27.84C47.7188 27.84 47.6762 27.8827 47.6335 27.968L43.3455 50.688ZM75.592 64.512C72.136 64.512 69.3413 63.488 67.208 61.44C65.1173 59.392 64.072 56.6827 64.072 53.312V29.888C64.072 26.5173 65.1173 23.808 67.208 21.76C69.3413 19.712 72.136 18.688 75.592 18.688C79.048 18.688 81.8427 19.712 83.976 21.76C86.1093 23.808 87.176 26.5387 87.176 29.952V32.64C87.176 33.0667 86.9627 33.28 86.536 33.28H81.672C81.2453 33.28 81.032 33.0667 81.032 32.64V29.824C81.032 28.0747 80.52 26.6667 79.496 25.6C78.5147 24.5333 77.2133 24 75.592 24C73.9707 24 72.648 24.5333 71.624 25.6C70.6427 26.6667 70.152 28.0747 70.152 29.824V53.376C70.152 55.1253 70.6427 56.5333 71.624 57.6C72.648 58.6667 73.9707 59.2 75.592 59.2C77.2133 59.2 78.5147 58.6667 79.496 57.6C80.52 56.5333 81.032 55.1253 81.032 53.376V46.336C81.032 46.1653 80.9467 46.08 80.776 46.08H75.912C75.4853 46.08 75.272 45.8667 75.272 45.44V41.472C75.272 41.0453 75.4853 40.832 75.912 40.832H86.536C86.9627 40.832 87.176 41.0453 87.176 41.472V53.312C87.176 56.6827 86.1093 59.392 83.976 61.44C81.8427 63.488 79.048 64.512 75.592 64.512Z" fill="#3C3C3C"/>
<path d="M108.696 83.512C105.325 83.512 102.595 82.4667 100.504 80.376C98.456 78.2427 97.432 75.4693 97.432 72.056V70.392C97.432 69.9653 97.6453 69.752 98.072 69.752H102.808C103.235 69.752 103.448 69.9653 103.448 70.392V71.736C103.448 73.6987 103.939 75.2773 104.92 76.472C105.901 77.624 107.16 78.2 108.696 78.2C110.232 78.2 111.491 77.6453 112.472 76.536C113.496 75.384 114.008 73.8907 114.008 72.056C114.008 70.8187 113.731 69.7307 113.176 68.792C112.664 67.8533 111.96 67.0213 111.064 66.296C110.211 65.528 108.803 64.4187 106.84 62.968C104.664 61.3467 102.957 59.96 101.72 58.808C100.483 57.656 99.4373 56.2693 98.584 54.648C97.7307 53.0267 97.304 51.128 97.304 48.952C97.304 45.496 98.328 42.7653 100.376 40.76C102.424 38.712 105.091 37.688 108.376 37.688C111.789 37.688 114.52 38.776 116.568 40.952C118.659 43.128 119.704 45.9867 119.704 49.528V51.128C119.704 51.5547 119.491 51.768 119.064 51.768H114.328C113.901 51.768 113.688 51.5547 113.688 51.128V49.4C113.688 47.48 113.197 45.944 112.216 44.792C111.235 43.5973 109.955 43 108.376 43C106.883 43 105.667 43.5333 104.728 44.6C103.789 45.624 103.32 47.0747 103.32 48.952C103.32 50.6587 103.789 52.1093 104.728 53.304C105.667 54.456 107.48 56.0133 110.168 57.976C112.728 59.896 114.648 61.4533 115.928 62.648C117.251 63.8427 118.253 65.1653 118.936 66.616C119.661 68.024 120.024 69.7093 120.024 71.672C120.024 75.256 118.979 78.136 116.888 80.312C114.797 82.4453 112.067 83.512 108.696 83.512ZM143.754 83C143.37 83 143.135 82.808 143.05 82.424L141.642 75.064C141.642 74.9787 141.599 74.9147 141.514 74.872C141.471 74.8293 141.407 74.808 141.322 74.808H130.89C130.805 74.808 130.719 74.8293 130.634 74.872C130.591 74.9147 130.57 74.9787 130.57 75.064L129.226 82.424C129.183 82.808 128.949 83 128.522 83H123.658C123.445 83 123.274 82.936 123.146 82.808C123.061 82.68 123.039 82.5093 123.082 82.296L132.618 38.776C132.703 38.392 132.938 38.2 133.322 38.2H139.018C139.445 38.2 139.679 38.392 139.722 38.776L149.322 82.296V82.424C149.322 82.808 149.13 83 148.746 83H143.754ZM131.658 69.688C131.658 69.8587 131.722 69.944 131.85 69.944H140.362C140.49 69.944 140.554 69.8587 140.554 69.688L136.202 46.968C136.159 46.8827 136.117 46.84 136.074 46.84C136.031 46.84 135.989 46.8827 135.946 46.968L131.658 69.688ZM175.469 42.872C175.469 43.2987 175.256 43.512 174.829 43.512H160.493C160.322 43.512 160.237 43.5973 160.237 43.768V57.656C160.237 57.8267 160.322 57.912 160.493 57.912H169.261C169.688 57.912 169.901 58.1253 169.901 58.552V62.584C169.901 63.0107 169.688 63.224 169.261 63.224H160.493C160.322 63.224 160.237 63.3093 160.237 63.48V82.36C160.237 82.7867 160.024 83 159.597 83H154.733C154.306 83 154.093 82.7867 154.093 82.36V38.84C154.093 38.4133 154.306 38.2 154.733 38.2H174.829C175.256 38.2 175.469 38.4133 175.469 38.84V42.872ZM201.783 42.872C201.783 43.2987 201.57 43.512 201.143 43.512H186.743C186.572 43.512 186.487 43.5973 186.487 43.768V57.656C186.487 57.8267 186.572 57.912 186.743 57.912H195.575C196.002 57.912 196.215 58.1253 196.215 58.552V62.584C196.215 63.0107 196.002 63.224 195.575 63.224H186.743C186.572 63.224 186.487 63.3093 186.487 63.48V77.432C186.487 77.6027 186.572 77.688 186.743 77.688H201.143C201.57 77.688 201.783 77.9013 201.783 78.328V82.36C201.783 82.7867 201.57 83 201.143 83H180.983C180.556 83 180.343 82.7867 180.343 82.36V38.84C180.343 38.4133 180.556 38.2 180.983 38.2H201.143C201.57 38.2 201.783 38.4133 201.783 38.84V42.872Z" fill="#41A7C0"/>
</svg>
