<svg width="85" height="86" viewBox="0 0 85 86" fill="none" xmlns="http://www.w3.org/2000/svg">
<path d="M25.8985 62.1478C24.9821 62.1478 24.2383 62.9003 24.2383 63.8275C24.2383 64.7547 24.9821 65.5072 25.8985 65.5072C26.8149 65.5072 27.5586 64.7547 27.5586 63.8275C27.5586 62.9003 26.8149 62.1478 25.8985 62.1478Z" fill="white"/>
<path d="M74.7308 31.9139L84.514 22.0157C84.9255 21.5993 85.0914 20.9953 84.9514 20.4238C84.8115 19.8522 84.3858 19.3967 83.8297 19.223L60.0064 11.7837C57.8588 4.79937 51.4759 0 44.1601 0C37.3594 0 31.2772 4.19334 28.76 10.519L1.16584 19.2245C0.611179 19.3996 0.187175 19.8554 0.0482202 20.4263C-0.0907349 20.9971 0.0752807 21.6001 0.486169 22.0158L10.5266 32.1744L4.19413 42.853C3.93498 43.2899 3.886 43.8222 4.06065 44.3001C4.2353 44.7779 4.61498 45.1497 5.09277 45.3107L14.2773 48.4081V74.242C14.2773 74.9421 14.7066 75.5688 15.3545 75.8147C20.9703 77.9452 41.836 85.8629 41.9481 85.9031C42.2774 86.0205 42.6485 86.0364 43.0102 85.918C43.015 85.9164 43.02 85.9153 43.0248 85.9137L72.9077 75.8355C73.5855 75.6069 74.0429 74.965 74.0429 74.242V47.7164L83.8375 44.6022C84.3913 44.4262 84.814 43.9704 84.9522 43.3999C85.0904 42.8295 84.9242 42.2275 84.5138 41.8121L74.7308 31.9139ZM60.7616 16.7969C60.7616 16.3701 60.7439 15.9443 60.7121 15.5198L80.218 21.6112L71.9343 29.9922L58.3994 25.4279C59.932 22.836 60.7616 19.8452 60.7616 16.7969ZM31.5972 12.425C33.4401 7.00262 38.4888 3.35938 44.1601 3.35938C50.2696 3.35938 55.5685 7.54045 57.0459 13.5269C57.3083 14.5906 57.4413 15.6908 57.4413 16.7969C57.4413 19.9167 56.418 22.8409 54.4816 25.2544C51.9454 28.4193 48.1833 30.2344 44.1601 30.2344C39.8111 30.2344 35.7319 28.0746 33.2474 24.4556C31.6979 22.2038 30.8788 19.5553 30.8788 16.7969C30.8788 15.2967 31.1204 13.8258 31.5972 12.425ZM4.77535 21.6046L27.7353 14.3612C27.6201 15.1637 27.5585 15.9767 27.5585 16.7967C27.5585 19.5012 28.1917 22.1206 29.3986 24.4841L13.0655 29.9922L4.77535 21.6046ZM8.10612 42.7858L13.3555 33.9336L40.0115 42.9234L34.7622 51.7757C31.9159 50.8158 11.1452 43.8106 8.10612 42.7858ZM40.8397 81.8965L17.5976 73.0782V49.5279C35.8842 55.6625 34.9912 55.4752 35.5004 55.4752C36.0711 55.4752 36.6176 55.1764 36.9243 54.6595L40.8397 48.0565V81.8965ZM42.4999 40.2216L17.8672 31.9142L31.2802 27.3908C34.4196 31.2956 39.1456 33.5938 44.1601 33.5938C48.7989 33.5938 53.1586 31.6623 56.2945 28.2592L67.1326 31.9141L42.4999 40.2216ZM70.7225 73.0315L44.1601 81.9897V46.7801L50.0455 54.2228C50.4736 54.7642 51.1863 54.9836 51.8396 54.7759L70.7225 48.7722V73.0315ZM51.9283 51.2266L45.2837 42.8238L71.9343 33.8358L80.2291 42.2282L51.9283 51.2266Z" fill="white"/>
<path d="M36.4425 65.876L32.7503 64.4752C31.8918 64.1497 30.9349 64.5896 30.6128 65.4581C30.2909 66.3269 30.7259 67.295 31.5843 67.6207L35.2765 69.0216C36.1368 69.3478 37.0926 68.9057 37.414 68.0386C37.7359 67.1701 37.3009 66.2017 36.4425 65.876Z" fill="white"/>
<path d="M36.4423 73.0517L26.4814 69.2724C25.6229 68.9467 24.666 69.3867 24.3439 70.2553C24.0218 71.1239 24.457 72.0922 25.3154 72.4179L35.2764 76.1972C35.4685 76.2701 35.6653 76.3047 35.8591 76.3047C36.5313 76.3047 37.1638 75.8887 37.4138 75.2143C37.7359 74.3455 37.3009 73.3774 36.4423 73.0517Z" fill="white"/>
<path d="M53.6351 10.5693C52.9868 9.91325 51.9356 9.91342 51.2871 10.5693L42.5001 19.4599L40.3536 17.2883C39.7054 16.6323 38.6541 16.6323 38.0057 17.2883C37.3572 17.9442 37.3574 19.0077 38.0057 19.6638L41.3262 23.023C41.9745 23.679 43.0257 23.679 43.6741 23.023L53.6351 12.9449C54.2833 12.289 54.2833 11.2254 53.6351 10.5693Z" fill="white"/>
</svg>
