<svg width="71" height="86" viewBox="0 0 71 86" fill="none" xmlns="http://www.w3.org/2000/svg">
<path d="M35.3254 49.0472C36.2543 49.0472 37.0083 48.2946 37.0083 47.3675C37.0083 46.4404 36.2543 45.6878 35.3254 45.6878C34.3964 45.6878 33.6424 46.4404 33.6424 47.3675C33.6424 48.2946 34.3964 49.0472 35.3254 49.0472Z" fill="white"/>
<path d="M34.3642 85.6874C34.6568 85.896 34.9993 86.0004 35.3425 86.0004C35.6856 86.0004 36.0281 85.896 36.3207 85.6874C53.468 73.463 70.6849 68.0992 70.6849 42.9465V11.8066C70.6849 10.9332 70.0137 10.2056 69.142 10.1328L64.7676 9.76796C54.7387 8.93402 44.8723 5.64419 36.2346 0.255398C35.6889 -0.0851327 34.996 -0.0851327 34.4504 0.255398C25.812 5.64419 15.9455 8.93402 5.91671 9.76862L1.54295 10.1328C0.67056 10.2056 0 10.9332 0 11.8066V42.9465C0 68.8084 19.6349 75.1867 34.3642 85.6874ZM3.36595 13.3517L6.19676 13.1162C16.4136 12.2658 26.4667 8.99832 35.3425 3.65087C44.2175 8.99832 54.2713 12.2658 64.4875 13.1162L67.319 13.3517V42.9465C67.319 65.6269 52.1768 70.4934 35.3398 82.265C20.5632 72.0281 3.36595 66.2187 3.36595 42.9465V13.3517Z" fill="white"/>
<path d="M34.3617 73.4782C34.9731 73.8948 35.7429 73.8646 36.3234 73.4342C51.5589 62.9092 60.5871 59.4462 60.5871 42.9485V20.9176C60.5871 20.0863 59.9777 19.3796 59.154 19.2563C51.0994 18.0483 43.3478 15.5465 36.1143 11.8204C35.5937 11.552 34.9737 11.5861 34.4964 11.8578C27.2833 15.5642 19.5567 18.0536 11.5311 19.2563C10.7073 19.3796 10.0979 20.0856 10.0979 20.9176V42.9485C10.0979 59.6017 19.986 63.6887 34.3617 73.4782ZM13.4638 22.3499C20.4633 21.1682 27.232 19.043 33.6425 16.0216V40.6487C33.6425 41.5765 34.3958 42.3284 35.3254 42.3284C36.255 42.3284 37.0084 41.5765 37.0084 40.6487V16.0058C43.428 19.0345 50.2092 21.1656 57.2212 22.3499V42.9485C57.2212 56.6025 50.8127 59.5794 37.0084 68.8971V54.0863C37.0084 53.1585 36.255 52.4066 35.3254 52.4066C34.3958 52.4066 33.6425 53.1585 33.6425 54.0863V68.9456C20.7447 60.3766 13.4638 56.7147 13.4638 42.9485V22.3499Z" fill="white"/>
</svg>
