<svg width="62" height="86" viewBox="0 0 62 86" fill="none" xmlns="http://www.w3.org/2000/svg">
<path d="M15.222 21.4327C14.9348 21.1925 14.5645 21.048 14.1628 21.048C13.2464 21.048 12.5026 21.8005 12.5026 22.7277C12.5026 23.5205 13.0438 24.1823 13.771 24.3587C13.8972 24.3906 14.0283 24.4074 14.1628 24.4074C15.0792 24.4074 15.8229 23.6566 15.8229 22.7277C15.8229 22.207 15.5889 21.7436 15.222 21.4327Z" fill="white"/>
<path d="M40.614 28.7274C40.4186 28.1194 39.8992 27.6763 39.274 27.5844L34.4218 26.8715L32.2531 22.423C31.9734 21.8496 31.3963 21.4865 30.7643 21.4865C30.7643 21.4865 30.7643 21.4865 30.7642 21.4865C30.1323 21.4865 29.5552 21.8494 29.2755 22.4227L27.1053 26.8715L22.253 27.5846C21.6277 27.6764 21.1082 28.1195 20.913 28.7276C20.7176 29.3356 20.8804 30.0031 21.3326 30.4494L24.8434 33.9131L24.0146 38.8027C23.9079 39.4327 24.1639 40.0697 24.6752 40.4454C25.1864 40.8213 25.8644 40.8707 26.4235 40.5732L30.7642 38.2647L35.1033 40.5732C35.6588 40.8687 36.337 40.824 36.8516 40.4454C37.3629 40.0697 37.6189 39.4327 37.5122 38.8027L36.6834 33.9131L40.1942 30.4494C40.6466 30.003 40.8094 29.3355 40.614 28.7274ZM33.7408 32.1241C33.3498 32.5099 33.1712 33.0657 33.2635 33.6106L33.6711 36.0156L31.5371 34.8801C31.0535 34.6228 30.4758 34.6228 29.9919 34.8801L27.8559 36.0163L28.2636 33.6106C28.3559 33.0659 28.1773 32.5101 27.7863 32.1241L26.0589 30.4199L28.4464 30.0691C28.9871 29.9897 29.4546 29.646 29.6963 29.1504L30.764 26.9622L31.8305 29.15C32.0724 29.646 32.5399 29.9897 33.0807 30.0691L35.4684 30.4199L33.7408 32.1241Z" fill="white"/>
<path d="M30.7643 10.9701C22.43 10.9701 17.3795 16.2415 17.2716 16.3078C16.5937 16.9325 16.5449 17.9949 17.1623 18.6805C17.7799 19.3663 18.8298 19.4157 19.5077 18.7911C22.8288 15.7428 26.7823 14.3295 30.7643 14.3295C39.9186 14.3295 47.3659 21.8645 47.3659 31.1263C47.3659 40.3579 39.9638 47.9232 30.7643 47.9232C21.3747 47.9232 13.7187 39.9768 14.1835 30.2781C14.199 29.9915 14.2206 29.7038 14.2478 29.4226C14.3374 28.4995 13.6702 27.6774 12.7578 27.5869C11.8417 27.4952 11.0327 28.1713 10.9432 29.0944C10.9114 29.4241 10.8858 29.7614 10.8675 30.1059C10.3094 41.724 19.4746 51.2824 30.7643 51.2824C41.8308 51.2824 50.6862 42.1656 50.6862 31.1262C50.6862 20.012 41.7493 10.9701 30.7643 10.9701Z" fill="white"/>
<path d="M61.1806 30.0971L56.6012 24.1226L57.6154 16.6318C57.7183 15.8723 57.2998 15.1386 56.5984 14.8489L49.6785 11.9897L46.8543 4.99044C46.5679 4.2806 45.8427 3.85665 45.092 3.96112L37.6884 4.98724L31.7819 0.352482C31.183 -0.117494 30.3458 -0.117494 29.7468 0.352482L23.8403 4.98741L16.4367 3.96129C15.6863 3.85749 14.9608 4.2806 14.6745 4.9906L11.8502 11.9899L4.93033 14.849C4.22892 15.1389 3.81039 15.8725 3.91332 16.632L4.92751 24.1227L0.348135 30.0972C-0.116045 30.7028 -0.116045 31.5498 0.348135 32.1557L4.92768 38.1318L3.91349 45.6227C3.81056 46.3825 4.22925 47.1162 4.93083 47.4059L11.8504 50.2634L14.6745 57.2642C14.961 57.9742 15.6866 58.3981 16.4369 58.2935L19.1433 57.9179V84.3202C19.1433 84.9997 19.5478 85.6121 20.1681 85.8721C20.7886 86.1318 21.5027 85.9883 21.9773 85.5079L30.7644 76.6175L39.5514 85.5079C40.0264 85.9885 40.7402 86.1318 41.3606 85.8721C41.9809 85.6121 42.3854 84.9997 42.3854 84.3202V57.9179L45.092 58.2931C45.8429 58.3976 46.5682 57.9738 46.8544 57.2638L49.6785 50.2631L56.598 47.4056C57.2996 47.1158 57.7183 46.3821 57.6154 45.6224L56.6012 38.1315L61.1807 32.1553C61.6449 31.5497 61.6449 30.7028 61.1806 30.0971ZM39.0651 80.2651L31.9383 73.0544C31.2898 72.3985 30.2389 72.3985 29.5903 73.0544L22.4636 80.2651V57.4577L23.8403 57.2668L29.7472 61.9003C30.0465 62.1351 30.4054 62.2525 30.7644 62.2525C31.1233 62.2525 31.4822 62.1351 31.7815 61.9003L37.6884 57.2668L39.0651 57.4577V80.2651ZM53.5495 36.6312C53.2762 36.9881 53.1562 37.4412 53.2168 37.8885L54.151 44.7878L47.7776 47.4197C47.3646 47.5903 47.0365 47.9221 46.868 48.34L44.2669 54.7881L41.3736 54.387C41.1148 54.2758 40.8277 54.2295 40.5184 54.2684L37.4478 53.8428C37.0046 53.7818 36.5578 53.9029 36.2053 54.1796L30.7644 58.4475L25.3235 54.1794C24.9737 53.905 24.5278 53.7813 24.0811 53.8426L17.262 54.7878L14.6608 48.3396C14.4922 47.9216 14.1643 47.5898 13.7512 47.4193L7.3779 44.7874L8.31207 37.8881C8.37267 37.4408 8.2528 36.9878 7.97937 36.6309L3.76125 31.1264L7.97904 25.6234C8.25247 25.2664 8.3725 24.8134 8.3119 24.366L7.37773 17.4663L13.7514 14.8329C14.1643 14.6622 14.492 14.3307 14.6607 13.9128L17.262 7.4663L24.0811 8.41146C24.5242 8.47243 24.9711 8.35132 25.3239 8.07468L30.7644 3.80558L36.2049 8.07485C36.5575 8.35149 37.0052 8.47276 37.4476 8.41162L44.2667 7.46646L46.868 13.9129C47.0367 14.3308 47.3643 14.6624 47.7773 14.8331L54.151 17.4665L53.2168 24.3661C53.1562 24.8136 53.2761 25.2666 53.5497 25.6235L57.7676 31.1267L53.5495 36.6312Z" fill="white"/>
</svg>
